%TF.GenerationSoftware,KiCad,Pcbnew,9.0.6*%
%TF.CreationDate,2025-11-26T06:50:29+05:30*%
%TF.ProjectId,Invis_Pad_Kicad,496e7669-735f-4506-9164-5f4b69636164,rev?*%
%TF.SameCoordinates,Original*%
%TF.FileFunction,Copper,L1,Top*%
%TF.FilePolarity,Positive*%
%FSLAX46Y46*%
G04 Gerber Fmt 4.6, Leading zero omitted, Abs format (unit mm)*
G04 Created by KiCad (PCBNEW 9.0.6) date 2025-11-26 06:50:29*
%MOMM*%
%LPD*%
G01*
G04 APERTURE LIST*
%TA.AperFunction,ComponentPad*%
%ADD10C,1.524000*%
%TD*%
%TA.AperFunction,ComponentPad*%
%ADD11R,1.600000X1.600000*%
%TD*%
%TA.AperFunction,ComponentPad*%
%ADD12O,1.600000X1.600000*%
%TD*%
%TA.AperFunction,Conductor*%
%ADD13C,0.200000*%
%TD*%
G04 APERTURE END LIST*
D10*
%TO.P,U1,1,VCC*%
%TO.N,Net-(A1-+5V)*%
X172117000Y-89255000D03*
%TO.P,U1,2,GND*%
%TO.N,Net-(U1-GND)*%
X174657000Y-89255000D03*
%TO.P,U1,3,SCL*%
%TO.N,Net-(A1-SCL{slash}A5)*%
X177197000Y-89255000D03*
%TO.P,U1,4,SDA*%
%TO.N,Net-(A1-SDA{slash}A4)*%
X179737000Y-89255000D03*
%TO.P,U1,5,XDA*%
%TO.N,unconnected-(U1-XDA-Pad5)*%
X182277000Y-89255000D03*
%TO.P,U1,6,XCL*%
%TO.N,unconnected-(U1-XCL-Pad6)*%
X184817000Y-89255000D03*
%TO.P,U1,7,ADD*%
%TO.N,unconnected-(U1-ADD-Pad7)*%
X187357000Y-89255000D03*
%TO.P,U1,8,INT*%
%TO.N,unconnected-(U1-INT-Pad8)*%
X189897000Y-89255000D03*
%TD*%
D11*
%TO.P,A1,1,TX1*%
%TO.N,unconnected-(A1-TX1-Pad1)*%
X174260000Y-104640000D03*
D12*
%TO.P,A1,2,RX1*%
%TO.N,unconnected-(A1-RX1-Pad2)*%
X174260000Y-107180000D03*
%TO.P,A1,3,~{RESET}*%
%TO.N,unconnected-(A1-~{RESET}-Pad3)*%
X174260000Y-109720000D03*
%TO.P,A1,4,GND*%
%TO.N,Net-(U1-GND)*%
X174260000Y-112260000D03*
%TO.P,A1,5,D2*%
%TO.N,unconnected-(A1-D2-Pad5)*%
X174260000Y-114800000D03*
%TO.P,A1,6,D3*%
%TO.N,unconnected-(A1-D3-Pad6)*%
X174260000Y-117340000D03*
%TO.P,A1,7,D4*%
%TO.N,unconnected-(A1-D4-Pad7)*%
X174260000Y-119880000D03*
%TO.P,A1,8,D5*%
%TO.N,unconnected-(A1-D5-Pad8)*%
X174260000Y-122420000D03*
%TO.P,A1,9,D6*%
%TO.N,unconnected-(A1-D6-Pad9)*%
X174260000Y-124960000D03*
%TO.P,A1,10,D7*%
%TO.N,unconnected-(A1-D7-Pad10)*%
X174260000Y-127500000D03*
%TO.P,A1,11,D8*%
%TO.N,unconnected-(A1-D8-Pad11)*%
X174260000Y-130040000D03*
%TO.P,A1,12,D9*%
%TO.N,unconnected-(A1-D9-Pad12)*%
X174260000Y-132580000D03*
%TO.P,A1,13,D10*%
%TO.N,unconnected-(A1-D10-Pad13)*%
X174260000Y-135120000D03*
%TO.P,A1,14,MOSI*%
%TO.N,unconnected-(A1-MOSI-Pad14)*%
X174260000Y-137660000D03*
%TO.P,A1,15,MISO*%
%TO.N,unconnected-(A1-MISO-Pad15)*%
X174260000Y-140200000D03*
%TO.P,A1,16,SCK*%
%TO.N,unconnected-(A1-SCK-Pad16)*%
X189500000Y-140200000D03*
%TO.P,A1,17,3V3*%
%TO.N,unconnected-(A1-3V3-Pad17)*%
X189500000Y-137660000D03*
%TO.P,A1,18,AREF*%
%TO.N,unconnected-(A1-AREF-Pad18)*%
X189500000Y-135120000D03*
%TO.P,A1,19,A0*%
%TO.N,unconnected-(A1-A0-Pad19)*%
X189500000Y-132580000D03*
%TO.P,A1,20,A1*%
%TO.N,unconnected-(A1-A1-Pad20)*%
X189500000Y-130040000D03*
%TO.P,A1,21,A2*%
%TO.N,unconnected-(A1-A2-Pad21)*%
X189500000Y-127500000D03*
%TO.P,A1,22,A3*%
%TO.N,unconnected-(A1-A3-Pad22)*%
X189500000Y-124960000D03*
%TO.P,A1,23,SDA/A4*%
%TO.N,Net-(A1-SDA{slash}A4)*%
X189500000Y-122420000D03*
%TO.P,A1,24,SCL/A5*%
%TO.N,Net-(A1-SCL{slash}A5)*%
X189500000Y-119880000D03*
%TO.P,A1,25,A6*%
%TO.N,unconnected-(A1-A6-Pad25)*%
X189500000Y-117340000D03*
%TO.P,A1,26,A7*%
%TO.N,unconnected-(A1-A7-Pad26)*%
X189500000Y-114800000D03*
%TO.P,A1,27,+5V*%
%TO.N,Net-(A1-+5V)*%
X189500000Y-112260000D03*
%TO.P,A1,28,~{RESET}*%
%TO.N,unconnected-(A1-~{RESET}-Pad28)*%
X189500000Y-109720000D03*
%TO.P,A1,29,GND*%
%TO.N,Net-(U1-GND)*%
X189500000Y-107180000D03*
%TO.P,A1,30,VIN*%
%TO.N,unconnected-(A1-VIN-Pad30)*%
X189500000Y-104640000D03*
%TD*%
D13*
%TO.N,Net-(U1-GND)*%
X184420000Y-112260000D02*
X189500000Y-107180000D01*
X169660000Y-112260000D02*
X174260000Y-112260000D01*
X168880000Y-95032000D02*
X168880000Y-112890000D01*
X168880000Y-112890000D02*
X169030000Y-112890000D01*
X174260000Y-112260000D02*
X184420000Y-112260000D01*
X174657000Y-89255000D02*
X168880000Y-95032000D01*
X169030000Y-112890000D02*
X169660000Y-112260000D01*
%TO.N,Net-(A1-SCL{slash}A5)*%
X177197000Y-89255000D02*
X192610000Y-104668000D01*
X192140000Y-119880000D02*
X189500000Y-119880000D01*
X192470000Y-120210000D02*
X192140000Y-119880000D01*
X192610000Y-104668000D02*
X192610000Y-120210000D01*
X192610000Y-120210000D02*
X192470000Y-120210000D01*
%TO.N,Net-(A1-SDA{slash}A4)*%
X192880000Y-122420000D02*
X189500000Y-122420000D01*
X194820000Y-120620000D02*
X194680000Y-120620000D01*
X194680000Y-120620000D02*
X192880000Y-122420000D01*
X179737000Y-89255000D02*
X194820000Y-104338000D01*
X194820000Y-104338000D02*
X194820000Y-120620000D01*
%TO.N,Net-(A1-+5V)*%
X171640000Y-119650000D02*
X172511000Y-118779000D01*
X165160000Y-113170000D02*
X171640000Y-119650000D01*
X165160000Y-96340000D02*
X165160000Y-113170000D01*
X182981000Y-118779000D02*
X189500000Y-112260000D01*
X172117000Y-89255000D02*
X172117000Y-89383000D01*
X172511000Y-118779000D02*
X182981000Y-118779000D01*
X172117000Y-89383000D02*
X165160000Y-96340000D01*
%TD*%
M02*
